<svg width="33" height="33" viewBox="0 0 33 33" fill="none" xmlns="http://www.w3.org/2000/svg">
<g clip-path="url(#clip0_1545_14795)">
<path d="M21.9786 3.47031H25.4489C26.0625 3.47031 26.6509 3.71406 27.0848 4.14793C27.5187 4.5818 27.7624 5.17026 27.7624 5.78385V28.9192C27.7624 29.5328 27.5187 30.1212 27.0848 30.5551C26.6509 30.989 26.0625 31.2327 25.4489 31.2327H6.94061C6.32702 31.2327 5.73857 30.989 5.30469 30.5551C4.87082 30.1212 4.62708 29.5328 4.62708 28.9192V5.78385C4.62708 5.17026 4.87082 4.5818 5.30469 4.14793C5.73857 3.71406 6.32702 3.47031 6.94061 3.47031H10.4109" stroke="currentColor" stroke-width="2.31353" stroke-linecap="round" stroke-linejoin="round"/>
<path d="M19.6651 1.15678H12.7245C11.4468 1.15678 10.4109 2.19258 10.4109 3.47031V4.62708C10.4109 5.90481 11.4468 6.94061 12.7245 6.94061H19.6651C20.9428 6.94061 21.9786 5.90481 21.9786 4.62708V3.47031C21.9786 2.19258 20.9428 1.15678 19.6651 1.15678Z" stroke="currentColor" stroke-width="2.31353" stroke-linecap="round" stroke-linejoin="round"/>
<path d="M10.4109 12.7244H21.9786" stroke="currentColor" stroke-width="2.31353" stroke-linecap="round" stroke-linejoin="round"/>
<path d="M10.4109 18.5083H21.9786" stroke="currentColor" stroke-width="2.31353" stroke-linecap="round" stroke-linejoin="round"/>
<path d="M10.4109 24.2921H21.9786" stroke="currentColor" stroke-width="2.31353" stroke-linecap="round" stroke-linejoin="round"/>
</g>
<defs>
<clipPath id="clip0_1545_14795">
<rect width="32.3895" height="32.3895" fill="white"/>
</clipPath>
</defs>
</svg>
