<svg width="33" height="33" viewBox="0 0 33 33" fill="none" xmlns="http://www.w3.org/2000/svg">
<g clip-path="url(#clip0_1545_14513)">
<path d="M29.2431 4.32629L27.2998 10.0639C27.2327 10.1966 27.1977 10.3432 27.1977 10.4919C27.1977 10.6406 27.2327 10.7872 27.2998 10.9199L30.932 15.7783C31.0364 15.9173 31.0995 16.083 31.1141 16.2563C31.1286 16.4295 31.0941 16.6034 31.0144 16.7579C30.9347 16.9125 30.8131 17.0414 30.6635 17.1301C30.5139 17.2187 30.3424 17.2633 30.1685 17.259H24.1071C23.9585 17.2633 23.8128 17.3009 23.6807 17.369C23.5486 17.437 23.4334 17.5338 23.3436 17.6523L19.9659 22.5107C19.8668 22.6527 19.7299 22.7641 19.5706 22.8321C19.4114 22.9002 19.2363 22.9222 19.0652 22.8957C18.8941 22.8692 18.7338 22.7952 18.6027 22.6822C18.4715 22.5691 18.3747 22.4215 18.3232 22.2562L16.5187 16.4723C16.4775 16.3294 16.4007 16.1992 16.2955 16.094C16.1903 15.9888 16.0601 15.912 15.9172 15.8708L10.1333 14.0663C9.96799 14.0148 9.8204 13.918 9.70735 13.7869C9.59429 13.6557 9.5203 13.4955 9.49379 13.3243C9.46728 13.1532 9.48931 12.9781 9.55738 12.8189C9.62544 12.6597 9.73682 12.5227 9.87884 12.4237L14.8298 8.93022C14.9482 8.84043 15.045 8.72524 15.1131 8.59312C15.1811 8.461 15.2187 8.31531 15.2231 8.16676V2.1053C15.2296 1.94609 15.277 1.79125 15.3609 1.65576C15.4447 1.52028 15.5622 1.40875 15.7018 1.33196C15.8414 1.25517 15.9985 1.21573 16.1578 1.21746C16.3171 1.21919 16.4733 1.26203 16.6112 1.34183L21.4696 4.97408C21.593 5.05974 21.7349 5.1149 21.8837 5.13501C22.0325 5.15512 22.184 5.13961 22.3257 5.08976L28.0632 3.14639C28.2278 3.08856 28.4053 3.0784 28.5754 3.1171C28.7454 3.15579 28.9011 3.24176 29.0244 3.36508C29.1478 3.48841 29.2337 3.64408 29.2724 3.81414C29.3111 3.98421 29.301 4.16174 29.2431 4.32629V4.32629Z" stroke="currentColor" stroke-width="2.31353" stroke-linecap="round" stroke-linejoin="round"/>
<path d="M16.2873 16.1022L1.15677 31.2327" stroke="currentColor" stroke-width="2.31353" stroke-linecap="round" stroke-linejoin="round"/>
</g>
<defs>
<clipPath id="clip0_1545_14513">
<rect width="32.3895" height="32.3895" fill="white"/>
</clipPath>
</defs>
</svg>
