<svg width="33" height="33" viewBox="0 0 33 33" fill="none" xmlns="http://www.w3.org/2000/svg">
<g clip-path="url(#clip0_1545_14281)">
<path d="M30.0759 15.7552L16.3104 29.6364C15.7763 30.1806 15.1391 30.6129 14.436 30.908C13.7329 31.2032 12.978 31.3552 12.2155 31.3552C11.4529 31.3552 10.6981 31.2032 9.99495 30.908C9.29184 30.6129 8.65461 30.1806 8.1205 29.6364L4.00241 25.4489C2.92437 24.354 2.32013 22.879 2.32013 21.3424C2.32013 19.8058 2.92437 18.3308 4.00241 17.2359L18.6702 2.52179C19.1004 2.0881 19.6121 1.74387 20.176 1.50896C20.7398 1.27405 21.3446 1.15311 21.9554 1.15311C22.5663 1.15311 23.1711 1.27405 23.7349 1.50896C24.2988 1.74387 24.8105 2.0881 25.2407 2.52179L26.8833 4.1644C27.317 4.59454 27.6612 5.1063 27.8961 5.67015C28.131 6.234 28.2519 6.83879 28.2519 7.44962C28.2519 8.06044 28.131 8.66523 27.8961 9.22908C27.6612 9.79293 27.317 10.3047 26.8833 10.7348L13.8812 23.7832C13.6661 24 13.4103 24.1721 13.1283 24.2896C12.8464 24.407 12.544 24.4675 12.2386 24.4675C11.9332 24.4675 11.6308 24.407 11.3489 24.2896C11.0669 24.1721 10.8111 24 10.596 23.7832L9.78625 22.9503C9.5694 22.7352 9.39729 22.4793 9.27984 22.1974C9.16238 21.9155 9.10191 21.6131 9.10191 21.3077C9.10191 21.0023 9.16238 20.6999 9.27984 20.418C9.39729 20.136 9.5694 19.8802 9.78625 19.6651L18.5083 11.0125" stroke="currentColor" stroke-width="2.31353" stroke-linecap="round" stroke-linejoin="round"/>
</g>
<defs>
<clipPath id="clip0_1545_14281">
<rect width="32.3895" height="32.3895" fill="white"/>
</clipPath>
</defs>
</svg>
