<svg width="45" height="45" viewBox="0 0 45 45" fill="none" xmlns="http://www.w3.org/2000/svg">
<path d="M23.8586 42.3801V26.1737C23.8586 25.1503 24.2651 24.1689 24.9887 23.4453C25.7124 22.7216 26.6939 22.3151 27.7172 22.3151C28.7406 22.3151 29.7221 22.7216 30.4457 23.4453C31.1694 24.1689 31.5759 25.1503 31.5759 26.1737V34.6628H36.2063C37.8436 34.6628 39.4139 35.3132 40.5718 36.4711C41.7298 37.629 42.3802 39.1993 42.3802 40.8367V42.3801" stroke="currentColor" stroke-width="4.5" stroke-linecap="round" stroke-linejoin="round"/>
<path d="M3.79347 5.33693C4.64589 5.33693 5.33693 4.64589 5.33693 3.79347C5.33693 2.94103 4.64589 2.25 3.79347 2.25C2.94103 2.25 2.25 2.94103 2.25 3.79347C2.25 4.64589 2.94103 5.33693 3.79347 5.33693Z" stroke="currentColor" stroke-width="4.5" stroke-linecap="round" stroke-linejoin="round"/>
<path d="M16.1412 5.33693C16.9936 5.33693 17.6846 4.64589 17.6846 3.79347C17.6846 2.94103 16.9936 2.25 16.1412 2.25C15.2888 2.25 14.5977 2.94103 14.5977 3.79347C14.5977 4.64589 15.2888 5.33693 16.1412 5.33693Z" stroke="currentColor" stroke-width="4.5" stroke-linecap="round" stroke-linejoin="round"/>
<path d="M28.489 5.33693C29.3414 5.33693 30.0324 4.64589 30.0324 3.79347C30.0324 2.94103 29.3414 2.25 28.489 2.25C27.6365 2.25 26.9455 2.94103 26.9455 3.79347C26.9455 4.64589 27.6365 5.33693 28.489 5.33693Z" stroke="currentColor" stroke-width="4.5" stroke-linecap="round" stroke-linejoin="round"/>
<path d="M3.79347 16.1412C4.64589 16.1412 5.33693 15.4502 5.33693 14.5977C5.33693 13.7453 4.64589 13.0543 3.79347 13.0543C2.94103 13.0543 2.25 13.7453 2.25 14.5977C2.25 15.4502 2.94103 16.1412 3.79347 16.1412Z" stroke="currentColor" stroke-width="4.5" stroke-linecap="round" stroke-linejoin="round"/>
<path d="M16.1412 16.1412C16.9936 16.1412 17.6846 15.4502 17.6846 14.5977C17.6846 13.7453 16.9936 13.0543 16.1412 13.0543C15.2888 13.0543 14.5977 13.7453 14.5977 14.5977C14.5977 15.4502 15.2888 16.1412 16.1412 16.1412Z" stroke="currentColor" stroke-width="4.5" stroke-linecap="round" stroke-linejoin="round"/>
<path d="M16.1412 26.9455C16.9936 26.9455 17.6846 26.2544 17.6846 25.402C17.6846 24.5496 16.9936 23.8585 16.1412 23.8585C15.2888 23.8585 14.5977 24.5496 14.5977 25.402C14.5977 26.2544 15.2888 26.9455 16.1412 26.9455Z" stroke="currentColor" stroke-width="4.5" stroke-linecap="round" stroke-linejoin="round"/>
<path d="M28.489 16.1412C29.3414 16.1412 30.0324 15.4502 30.0324 14.5977C30.0324 13.7453 29.3414 13.0543 28.489 13.0543C27.6365 13.0543 26.9455 13.7453 26.9455 14.5977C26.9455 15.4502 27.6365 16.1412 28.489 16.1412Z" stroke="currentColor" stroke-width="4.5" stroke-linecap="round" stroke-linejoin="round"/>
<path d="M3.79347 26.9455C4.64589 26.9455 5.33693 26.2544 5.33693 25.402C5.33693 24.5496 4.64589 23.8585 3.79347 23.8585C2.94103 23.8585 2.25 24.5496 2.25 25.402C2.25 26.2544 2.94103 26.9455 3.79347 26.9455Z" stroke="currentColor" stroke-width="4.5" stroke-linecap="round" stroke-linejoin="round"/>
</svg>
