<svg width="45" height="45" viewBox="0 0 45 45" fill="none" xmlns="http://www.w3.org/2000/svg">
<path d="M22.3151 25.402C26.5773 25.402 30.0324 21.9468 30.0324 17.6846C30.0324 13.4225 26.5773 9.96732 22.3151 9.96732C18.0529 9.96732 14.5978 13.4225 14.5978 17.6846C14.5978 21.9468 18.0529 25.402 22.3151 25.402Z" stroke="currentColor" stroke-width="4.5" stroke-linecap="round" stroke-linejoin="round"/>
<path d="M9.13391 37.441C10.5114 35.1799 12.4474 33.3111 14.7559 32.0144C17.0643 30.7177 19.6674 30.0366 22.3151 30.0366C24.9628 30.0366 27.566 30.7177 29.8744 32.0144C32.1828 33.3111 34.1188 35.1799 35.4963 37.441" stroke="currentColor" stroke-width="4.5" stroke-linecap="round" stroke-linejoin="round"/>
<path d="M22.3151 42.3801C33.3967 42.3801 42.3801 33.3967 42.3801 22.3151C42.3801 11.2334 33.3967 2.25 22.3151 2.25C11.2334 2.25 2.25 11.2334 2.25 22.3151C2.25 33.3967 11.2334 42.3801 22.3151 42.3801Z" stroke="currentColor" stroke-width="4.5" stroke-linecap="round" stroke-linejoin="round"/>
</svg>
